# AST/ASF file generated using VICON BodyLanguage
# -----------------------------------------------
:version 1.10
:name VICON
:units
  mass 1.0
  length 0.45
  angle deg
:documentation
   .ast/.asf automatically generated from VICON data using
   VICON BodyBuilder and BodyLanguage model FoxedUp or BRILLIANT.MOD
:root
   order TX TY TZ RX RY RZ
   axis XYZ
   position 0 0 0  
   orientation 0 0 0 
:bonedata
  begin
     id 1 
     name lhipjoint
     direction 0.707368 -0.647095 0.284426 
     length 2.60678 
     axis 0 0 0  XYZ
  end
  begin
     id 2 
     name lfemur
     direction 0.34202 -0.939693 0  
     length 6.63812  
     axis 0 0 20  XYZ
    dof rx ry rz
    limits (-160.0 20.0)
           (-70.0 70.0)
           (-60.0 70.0)
  end
  begin
     id 3 
     name ltibia
     direction 0.34202 -0.939693 0   
     length 7.51178   
     axis 0 0 20   XYZ
    dof rx
    limits (-10.0 170.0)
  end
  begin
     id 4 
     name lfoot
     direction 0.121251 -0.333133 0.935051   
     length 1.83716   
     axis -90 7.62852e-016 20   XYZ
    dof rx rz
    limits (-45.0 90.0)
           (-70.0 20.0)
  end
  begin
     id 5 
     name ltoes
     direction 1.53611e-011 -4.21962e-011 1   
     length 0.916133   
     axis -90 7.62852e-016 20   XYZ
    dof rx
    limits (-90.0 20.0)
  end
  begin
     id 6 
     name rhipjoint
     direction -0.692419 -0.660507 0.290321   
     length 2.55385  
     axis 0 0 0  XYZ 
  end
  begin
     id 7 
     name rfemur
     direction -0.34202 -0.939693 0   
     length 7.29079   
     axis 0 0 -20   XYZ
    dof rx ry rz
    limits (-160.0 20.0)
           (-70.0 70.0)
           (-70.0 60.0)
  end
  begin
     id 8 
     name rtibia
     direction -0.34202 -0.939693 0   
     length 7.47143   
     axis 0 0 -20   XYZ
    dof rx
    limits (-10.0 170.0)
 end
 begin
     id 9 
     name rfoot
     direction -0.119907 -0.329441 0.936532   
     length 1.79439  
     axis -90 -7.62852e-016 -20   XYZ
    dof rx rz
    limits (-45.0 90.0)
           (-20.0 70.0)
  end
  begin
     id 10 
     name rtoes
     direction -1.53571e-011 -4.21961e-011 1   
     length 0.896039   
     axis -90 -7.62852e-016 -20   XYZ
    dof rx
    limits (-90.0 20.0)
  end
  begin
     id 11 
     name lowerback
     direction 0.0367721 0.992912 -0.113016   
     length 1.73542   
     axis 0 0 0   XYZ
    dof rx ry rz
    limits (-20.0 45.0)
           (-30.0 30.0)
           (-30.0 30.0)
  end
  begin
     id 12 
     name upperback
     direction -0.000314626 0.990678 0.136227   
     length 1.7514   
     axis 0 0 0   XYZ
    dof rx ry rz
    limits (-20.0 45.0)
           (-30.0 30.0)
           (-30.0 30.0)
  end
  begin
     id 13 
     name thorax
     direction -0.0226159 0.981151 0.191917   
     length 1.71471   
     axis 0 0 0   XYZ
    dof rx ry rz
    limits (-20.0 45.0)
           (-30.0 30.0)
           (-30.0 30.0)
  end
  begin
     id 14 
     name lowerneck
     direction 0.0219333 0.998071 0.0580739   
     length 1.65882   
     axis 0 0 0   XYZ
    dof rx ry rz
    limits (-20.0 45.0)
           (-30.0 30.0)
           (-30.0 30.0)
  end
  begin
     id 15 
     name upperneck
     direction 0.0384529 0.980058 -0.194957   
     length 1.6612   
     axis 0 0 0   XYZ
    dof rx ry rz
    limits (-20.0 45.0)
           (-30.0 30.0)
           (-30.0 30.0)
  end
  begin
     id 16
     name head
     direction 0.00592123 0.997421 -0.0715234  
     length 1.68077  
     axis 0 0 0   XYZ
    dof rx ry rz
    limits (-20.0 45.0)
           (-30.0 30.0)
           (-30.0 30.0)
  end
  begin
     id 17 
     name lclavicle
     direction 0.904803 0.417826 0.0821728  
     length 3.42227  
     axis 0 0 0   XYZ
    dof ry rz
    limits (-20.0 10.0)
           (0.0 20.0)
  end
  begin
     id 18 
     name lhumerus
     direction 1 -4.48965e-011 -2.68786e-027   
     length 5.11878   
     axis -180 -30 -90   XYZ
    dof rx ry rz
    limits (-60.0 90.0)
           (-90.0 90.0)
           (-90.0 90.0)
  end
  begin
     id 19
     name lradius
     direction 1 -4.48965e-011 2.61168e-028   
     length 3.59971   
     axis -180 -30 -90   XYZ
    dof rx
    limits (-10.0 170.0)
  end
  begin
     id 20
     name lwrist
     direction 1 -4.48965e-011 1.58672e-027   
     length 1.79985   
     axis -1.65735e-015 90 90   XYZ
    dof ry
    limits (-180.0 0.0)
 end
  begin
     id 21 
     name lhand
     direction 1 -4.48942e-011 3.17344e-027   
     length 0.62877   
     axis -2.02492e-015 90 90   XYZ
    dof rx rz
    limits (-90.0 90.0)
           (-45.0 45.0)
  end
  begin
     id 22 
     name lfingers
     direction 1 -4.49011e-011 6.34687e-027   
     length 0.506931   
     axis -4.04985e-015 90 90   XYZ
    dof rx
    limits (0.0 90.0)
  end
  begin
     id 23
     name lthumb
     direction 0.707107 -6.34982e-011 0.707107   
     length 0.727854   
     axis -90 45 2.85299e-015   XYZ
    dof rx rz
    limits (-45.0 45.0)
           (-45.0 45.0)
  end
  begin
     id 24 
     name rclavicle
     direction -0.945647 0.32488 0.0143075   
     length 3.52737  
     axis 0 0 0   XYZ 
    dof ry rz
    limits (-10.0 20.0)
           (-20.0 0.0)
  end
  begin
     id 25 
     name rhumerus
     direction -1 -4.48962e-011 1.92182e-027  
     length 5.4902   
     axis -180 30 90   XYZ
    dof rx ry rz
    limits (-90.0 60.0)
           (-90.0 90.0)
           (-90.0 90.0)
  end
  begin
     id 26 
     name rradius
     direction -1 -4.48967e-011 -5.97193e-028   
     length 3.20659   
     axis -180 30 90   XYZ
    dof rx
    limits (-10.0 170.0)
  end
  begin
     id 27 
     name rwrist
     direction -1 -4.48964e-011 1.58672e-027   
     length 1.6033   
     axis -1.65735e-015 -90 -90   XYZ
    dof ry
    limits (-180.0 0.0)
  end
  begin
     id 28
     name rhand
     direction -1 -4.49006e-011 3.17344e-027   
     length 0.691885   
     axis -2.02492e-015 -90 -90   XYZ
    dof rx rz
    limits (-90.0 90.0)
           (-45.0 45.0)
  end
  begin
     id 29
     name rfingers
     direction -1 -4.48908e-011 6.34687e-027   
     length 0.557815   
     axis -4.04985e-015 -90 -90   XYZ
    dof rx
    limits (0.0 90.0)
  end
  begin
     id 30
     name rthumb
     direction -0.707107 -6.34999e-011 0.707107   
     length 0.800915   
     axis -90 -45 -2.85299e-015   XYZ
    dof rx rz
    limits (-45.0 45.0)
           (-45.0 45.0)
  end
:hierarchy
  begin
    root lhipjoint rhipjoint lowerback
    lhipjoint lfemur
    lfemur ltibia
    ltibia lfoot
    lfoot ltoes
    rhipjoint rfemur
    rfemur rtibia
    rtibia rfoot
    rfoot rtoes
    lowerback upperback
    upperback thorax
    thorax lowerneck lclavicle rclavicle
    lowerneck upperneck
    upperneck head
    lclavicle lhumerus
    lhumerus lradius
    lradius lwrist
    lwrist lhand lthumb
    lhand lfingers
    rclavicle rhumerus
    rhumerus rradius
    rradius rwrist
    rwrist rhand rthumb
    rhand rfingers
  end

#!OML:ASF I:\Actors\actors\Patient Classification 1\Patient 1\Session 1\Subject1.ASF
:FULLY-SPECIFIED
:DEGREES
199
root 0.799825 17.4935 8.62238 8.43965 0.331313 -9.40021
lowerback -3.99074 0.956419 7.41746
upperback -5.85768 1.25195 2.54741
thorax -3.75742 0.388511 -1.49511
lowerneck -5.47306 -3.60233 -1.07377
upperneck 43.2509 -6.96713 3.60061
head 16.8156 -2.64389 0.771185
rclavicle 4.00054e-015 -4.11484e-014
rhumerus 19.7177 70.2403 -73.4801
rradius 142.587
rwrist -13.3281
rhand -39.338 -77.8288
rfingers 7.12502
rthumb -12.3296 107.445
lclavicle 4.00054e-015 -4.11484e-014
lhumerus 10.8384 -68.2837 80.1455
lradius 136.9
lwrist 21.1881
lhand -61.1561 -33.5578
lfingers 7.12502
lthumb -33.2517 -6.61108
rfemur -2.99851 25.4346 26.6836
rtibia 2.79483
rfoot -12.5401 -23.8835
rtoes 2.6158
lfemur 5.5446 -45.2082 -10.4177
ltibia -4.55246
lfoot -20.3819 51.3112
ltoes 7.98741
200
root 0.798057 17.4953 8.61853 8.44402 0.385412 -9.4787
lowerback -3.80173 1.23437 7.70821
upperback -5.9296 1.63517 2.24556
thorax -3.89711 0.555106 -1.96902
lowerneck -5.69685 -3.82544 -0.764598
upperneck 43.1352 -7.50735 3.94008
head 16.8404 -2.76896 0.780663
rclavicle -1.10077e-014 -1.53064e-014
rhumerus 18.7279 69.0206 -74.5202
rradius 142.589
rwrist -12.6203
rhand -38.1451 -77.593
rfingers 7.12502
rthumb -11.1792 107.275
lclavicle -1.10077e-014 -1.53064e-014
lhumerus 12.015 -69.8212 79.0671
lradius 136.443
lwrist 23.1077
lhand -60.4943 -50.1193
lfingers 7.12502
lthumb -32.6223 -23.0402
rfemur -3.08775 25.385 26.7582
rtibia 2.88564
rfoot -12.5139 -23.8821
rtoes 2.44742
lfemur 5.38393 -45.031 -10.1659
ltibia -4.54552
lfoot -20.301 51.1061
ltoes 7.9902
201
root 0.797752 17.4964 8.61692 8.42688 0.427118 -9.5074
lowerback -3.54048 1.20625 7.66374
upperback -6.07961 1.63689 2.29631
thorax -4.2056 0.5456 -1.89772
lowerneck -5.71184 -3.80903 -0.771031
upperneck 42.9848 -7.47704 3.96016
head 16.7575 -2.7577 0.793726
rclavicle -4.5472e-015 1.37161e-014
rhumerus 18.2857 69.0043 -75.0041
rradius 142.569
rwrist -12.0716
rhand -37.7406 -77.0926
rfingers 7.12502
rthumb -10.789 106.795
lclavicle -4.5472e-015 1.37161e-014
lhumerus 11.3514 -69.6345 79.9445
lradius 136.365
lwrist 22.9527
lhand -60.0205 -49.9086
lfingers 7.12502
lthumb -32.1713 -22.7372
rfemur -3.09963 25.3953 26.796
rtibia 2.91858
rfoot -12.5169 -23.9216
rtoes 2.42678
lfemur 5.29988 -44.8637 -10.0503
ltibia -4.53308
lfoot -20.0252 50.9372
ltoes 7.70517
202
root 0.797935 17.4972 8.61768 8.40286 0.463714 -9.46098
lowerback -3.48353 1.13013 7.6102
upperback -6.11819 1.54534 2.33392
thorax -4.28846 0.499609 -1.83054
lowerneck -5.76988 -3.77389 -0.889535
upperneck 42.7679 -7.3936 3.98757
head 16.6508 -2.74334 0.835912
rclavicle -1.61513e-014 -7.95139e-015
rhumerus 18.2709 69.1453 -75.1746
rradius 142.466
rwrist -11.3403
rhand -37.5093 -76.4248
rfingers 7.12502
rthumb -10.5659 106.139
lclavicle -1.61513e-014 -7.95139e-015
lhumerus 10.7822 -68.8136 80.7835
lradius 136.742
lwrist 21.7112
lhand -60.1684 -38.5249
lfingers 7.12502
lthumb -32.3121 -11.3821
rfemur -3.05491 25.4374 26.7648
rtibia 2.91593
rfoot -12.5825 -23.9837
rtoes 2.65593
lfemur 5.30661 -44.8113 -10.1169
ltibia -4.52342
lfoot -19.7527 50.8976
ltoes 7.4268
203
root 0.796728 17.4996 8.61597 8.35695 0.523985 -9.4222
lowerback -3.38411 1.03904 7.5427
upperback -6.10016 1.43502 2.38726
thorax -4.3371 0.447646 -1.73963
lowerneck -5.97615 -3.73832 -0.891594
upperneck 42.6325 -7.28681 3.87283
head 16.6114 -2.71333 0.79433
rclavicle 7.91411e-015 -4.96962e-015
rhumerus 18.4941 69.3864 -75.1034
rradius 142.418
rwrist -11.2634
rhand -37.9241 -75.962
rfingers 7.12502
rthumb -10.9661 105.656
lclavicle 7.91411e-015 -4.96962e-015
lhumerus 10.5861 -68.3619 81.1707
lradius 137.124
lwrist 21.1058
lhand -60.3195 -30.6137
lfingers 7.12502
lthumb -32.456 -3.50028
rfemur -3.01741 25.4094 26.7533
rtibia 2.96152
rfoot -12.6196 -24.015
rtoes 2.83454
lfemur 5.26019 -44.6732 -10.1254
ltibia -4.48914
lfoot -19.4411 50.757
ltoes 7.05791
204
root 0.79556 17.5029 8.6125 8.28199 0.582523 -9.43036
lowerback -3.15051 0.951393 7.47421
upperback -6.1015 1.34544 2.47449
thorax -4.48105 0.403579 -1.61474
lowerneck -6.22772 -3.67839 -0.90149
upperneck 42.6238 -7.18207 3.83332
head 16.6617 -2.67121 0.788
rclavicle -2.15309e-014 1.43125e-014
rhumerus 18.3746 69.4927 -75.3533
rradius 142.451
rwrist -11.1775
rhand -37.7009 -75.6958
rfingers 7.12502
rthumb -10.7507 105.401
lclavicle -2.15309e-014 1.43125e-014
lhumerus 10.4237 -68.9546 81.2926
lradius 136.527
lwrist 22.5799
lhand -60.3995 -48.1891
lfingers 7.12502
lthumb -32.532 -21.0913
rfemur -2.96386 25.3773 26.8055
rtibia 3.01482
rfoot -12.6473 -24.0444
rtoes 2.8974
lfemur 5.22611 -44.477 -10.0729
ltibia -4.462
lfoot -19.1675 50.548
ltoes 6.73124
205
root 0.794753 17.5054 8.60999 8.22146 0.612094 -9.44139
lowerback -2.96933 0.921073 7.44111
upperback -6.09006 1.32404 2.50696
thorax -4.57438 0.392509 -1.56533
lowerneck -6.43791 -3.65179 -0.866334
upperneck 42.6673 -7.15606 3.83093
head 16.7361 -2.64921 0.779927
rclavicle -2.14936e-015 5.13858e-014
rhumerus 18.0593 69.455 -75.7569
rradius 142.446
rwrist -11.0083
rhand -37.4133 -75.3251
rfingers 7.12502
rthumb -10.4734 105.044
lclavicle -2.14936e-015 5.13858e-014
lhumerus 10.1805 -69.6183 81.4737
lradius 136.228
lwrist 23.6248
lhand -59.397 -54.6344
lfingers 7.12502
lthumb -31.5776 -27.3447
rfemur -2.90718 25.4134 26.8532
rtibia 3.02336
rfoot -12.6822 -24.1135
rtoes 2.92847
lfemur 5.23162 -44.3406 -10.046
ltibia -4.45726
lfoot -19.1014 50.3908
ltoes 6.76195
206
root 0.793264 17.5074 8.6087 8.20237 0.617172 -9.44681
lowerback -2.93579 0.801365 7.31999
upperback -6.02723 1.16922 2.67247
thorax -4.54333 0.327166 -1.32577
lowerneck -6.5575 -3.53141 -0.973522
upperneck 42.6787 -6.87307 3.64725
head 16.7514 -2.57033 0.757619
rclavicle 4.5969e-015 1.46107e-014
rhumerus 18.1844 69.7089 -75.6791
rradius 142.419
rwrist -11.0031
rhand -37.3768 -74.8765
rfingers 7.12502
rthumb -10.4381 104.597
lclavicle 4.5969e-015 1.46107e-014
lhumerus 9.38188 -69.0934 82.3494
lradius 136.217
lwrist 23.0465
lhand -59.2728 -53.3951
lfingers 7.12502
lthumb -31.4593 -26.0822
rfemur -2.90563 25.4371 26.8691
rtibia 3.03545
rfoot -12.6856 -24.1492
rtoes 2.90612
lfemur 5.18694 -44.2123 -9.99559
ltibia -4.43208
lfoot -19.0122 50.2636
ltoes 6.75631
207
root 0.792074 17.5088 8.60825 8.21362 0.620314 -9.476
lowerback -3.01509 0.648086 7.20951
upperback -5.92419 0.957162 2.89499
thorax -4.4094 0.237807 -1.03151
lowerneck -6.63057 -3.37487 -1.2657
upperneck 42.6937 -6.51636 3.52797
head 16.7665 -2.48366 0.810106
rclavicle -1.92697e-014 6.19711e-014
rhumerus 18.4524 70.1675 -75.418
rradius 142.422
rwrist -11.1308
rhand -37.5593 -74.5522
rfingers 7.12502
rthumb -10.6142 104.264
lclavicle -1.92697e-014 6.19711e-014
lhumerus 8.67979 -69.2206 82.9823
lradius 136.584
lwrist 23.4207
lhand -59.7192 -53.3304
lfingers 7.12502
lthumb -31.8845 -26.1013
rfemur -2.96901 25.3398 26.8842
rtibia 3.09921
rfoot -12.6715 -24.0605
rtoes 2.79508
lfemur 5.1195 -44.1354 -9.90018
ltibia -4.41543
lfoot -18.9488 50.1871
ltoes 6.67622
208
root 0.791452 17.5096 8.60977 8.2779 0.619922 -9.50653
lowerback -3.20201 0.693753 7.24217
upperback -5.81069 0.990925 2.88213
thorax -4.18053 0.261705 -1.06177
lowerneck -6.70212 -3.40913 -1.31035
upperneck 42.7391 -6.57217 3.55696
head 16.8169 -2.5074 0.821443
rclavicle -1.04859e-014 5.15846e-014
rhumerus 18.0785 70.2206 -75.7387
rradius 142.417
rwrist -11.1505
rhand -37.8305 -74.3406
rfingers 7.12502
rthumb -10.8757 104.039
lclavicle -1.04859e-014 5.15846e-014
lhumerus 7.92886 -67.3848 84.1027
lradius 136.858
lwrist 20.0138
lhand -58.839 -32.9451
lfingers 7.12502
lthumb -31.0459 -5.5524
rfemur -3.06626 25.2845 26.881
rtibia 3.15261
rfoot -12.6825 -23.9887
rtoes 2.82127
lfemur 5.05013 -44.1693 -9.80149
ltibia -4.44673
lfoot -18.9137 50.2431
ltoes 6.54544
